<?xml version="1.0" standalone="no"?>
<!DOCTYPE svg PUBLIC "-//W3C//DTD SVG 20010904//EN"
 "http://www.w3.org/TR/2001/REC-SVG-20010904/DTD/svg10.dtd">
<svg version="1.0" xmlns="http://www.w3.org/2000/svg"
 width="296.000000pt" height="296.000000pt" viewBox="0 0 296.000000 296.000000"
 preserveAspectRatio="xMidYMid meet">
<metadata>
Created by potrace 1.14, written by Peter Selinger 2001-2017
</metadata>
<g transform="translate(0.000000,296.000000) scale(0.100000,-0.100000)"
fill="#000000" stroke="none">
<path d="M1515 2924 c-38 -19 -122 -51 -185 -70 -226 -69 -348 -128 -439 -213
-39 -36 -45 -39 -56 -24 -7 9 -17 13 -23 9 -6 -3 -12 3 -14 16 -5 36 -22 30
-53 -20 -16 -26 -32 -49 -35 -52 -10 -8 -84 -132 -107 -181 -12 -25 -25 -67
-29 -95 -3 -27 -8 -51 -9 -54 -7 -12 -17 -218 -20 -407 -2 -109 -4 -234 -4
-278 -1 -65 -4 -77 -14 -64 -20 26 -47 30 -78 12 -62 -37 -83 -152 -64 -343 4
-41 7 -82 7 -90 0 -8 6 -47 14 -86 14 -67 31 -96 63 -106 9 -3 14 -25 16 -74
4 -99 22 -178 60 -261 27 -59 71 -129 95 -153 3 -3 18 -23 35 -45 41 -55 209
-225 222 -225 6 0 13 -4 15 -8 4 -10 108 -64 108 -57 0 3 9 1 21 -5 11 -6 29
-13 40 -16 10 -2 29 -6 42 -9 202 -47 380 -11 660 132 104 54 141 79 200 137
39 39 81 84 92 100 11 15 25 33 30 40 6 6 25 34 44 62 44 65 63 78 94 62 12
-7 24 -16 27 -20 3 -4 14 -5 25 -3 11 2 26 4 34 4 28 2 161 167 161 200 0 5 4
11 8 13 11 4 68 125 81 173 34 125 -12 241 -91 228 -18 -3 -39 -10 -47 -16
-12 -10 -13 -9 -8 6 9 23 36 118 42 146 3 11 7 30 10 41 3 11 7 29 10 41 2 11
7 29 10 39 3 10 8 27 10 37 2 10 13 54 24 98 11 44 23 98 27 119 3 21 8 48 10
60 13 57 12 197 -1 256 -31 133 -111 334 -175 439 -24 39 -30 36 -37 -16 -3
-21 -6 -39 -7 -40 -7 -7 -107 136 -138 197 -21 41 -44 80 -51 85 -6 6 -20 27
-29 48 -26 55 -43 47 -69 -30 l-23 -68 -17 86 c-23 120 -47 198 -73 241 l-21
36 -45 -30 c-73 -50 -161 -95 -219 -112 -30 -9 -57 -16 -60 -16 -3 0 -7 33 -9
72 -1 40 -6 76 -10 80 -4 4 -38 -9 -77 -28z"/>
</g>
</svg>
